# xmcd CD database file
# Copyright (C) 1993-1998 Ti Kan
#
# Track frame offsets:
#	150
#	10822
#	23102
#	34907
#	46455
#	58717
#	68675
#	79555
#	91072
#	104135
#	115340
#	124327
#	136712
#	144612
#	154450
#	164887
#	178702
#	188755
#	193942
#	205755
#	216952
#
# Disc length: 3032 seconds
#
# Revision: 1
# Processed by: cddbd v1.4b41PL1 Copyright (c) Steve Scherf et al.
# Submitted via: CDValet v3.31 - Copyright (c) 1997 Greg Leichner
#
DISCID=370bd615
DTITLE=Hank Williams - Let's Turn Back The Years July1951 - Jun
DTITLE=e1952 Vol 7
DYEAR=1900
DGENRE=
TTITLE0=Crazy Heart 
TTITLE1=Half As Much
TTITLE2=I'd Still Want You
TTITLE3=Baby We're Really In Love
TTITLE4=I'm Sorry For You My Friend
TTITLE5=Honky Tonk Blues
TTITLE6=Let's Turn Back The Years
TTITLE7=Window Shopping
TTITLE8=Jambalaya (On The Bayou)
TTITLE9=I'll Never Get Out Of This World Alive
TTITLE10=Are You Walkin' And A Talkin' For The Lord?
TTITLE11='Neath A Cold Grey Tomb Of Stone
TTITLE12=Jesus is Calling
TTITLE13=My Main Trial Is Yet To Come
TTITLE14=Thank God
TTITLE15=Little Paper Boy
TTITLE16=Someday You'll Call My Name
TTITLE17=When You're Tired Of Breaking Other Hearts
TTITLE18=How Can You Refuse Him Now?
TTITLE19=A Teardrop On A Rose
TTITLE20=The Log Train
EXTD=
EXTT0=
EXTT1=
EXTT2=
EXTT3=
EXTT4=
EXTT5=
EXTT6=
EXTT7=
EXTT8=
EXTT9=
EXTT10=
EXTT11=
EXTT12=
EXTT13=
EXTT14=
EXTT15=
EXTT16=
EXTT17=
EXTT18=
EXTT19=
EXTT20=
PLAYORDER=
